<svg xmlns="http://www.w3.org/2000/svg" width="426" height="108" viewBox="0 0 426 108">
  <style>
    text { font-family: Arial, sans-serif; font-size: 12px; fill: #333; }
  </style>
  <text x="10" y="20">Algorithm Clover</text>
  <g><title>2026-05-14&#10;C++: 7문제&#10;Python: 2문제</title><path d="M 0 -10 C -12 -22, -30 -10, -30 10 C -30 28, -10 42, 0 50 C 10 42, 30 28, 30 10 C 30 -10, 12 -22, 0 -10 Z" transform="translate(39,43) rotate(0) scale(0.9)" style="fill:#1B5E20;stroke:#ffffff;stroke-width:1;" /><path d="M 0 -10 C -12 -22, -30 -10, -30 10 C -30 28, -10 42, 0 50 C 10 42, 30 28, 30 10 C 30 -10, 12 -22, 0 -10 Z" transform="translate(60,64) rotate(90) scale(0.9)" style="fill:#1B5E20;stroke:#ffffff;stroke-width:1;" /><path d="M 0 -10 C -12 -22, -30 -10, -30 10 C -30 28, -10 42, 0 50 C 10 42, 30 28, 30 10 C 30 -10, 12 -22, 0 -10 Z" transform="translate(39,85) rotate(180) scale(0.9)" style="fill:#1B5E20;stroke:#ffffff;stroke-width:1;" /><path d="M 0 -10 C -12 -22, -30 -10, -30 10 C -30 28, -10 42, 0 50 C 10 42, 30 28, 30 10 C 30 -10, 12 -22, 0 -10 Z" transform="translate(18,64) rotate(270) scale(0.9)" style="fill:#1B5E20;stroke:#ffffff;stroke-width:1;" /><line x1="39" y1="66" x2="39" y2="83" style="stroke:#6D4C41;stroke-width:2;stroke-linecap:round;" /></g>
</svg>
