<svg xmlns="http://www.w3.org/2000/svg" width="426" height="108" viewBox="0 0 426 108">
  <style>
    text { font-family: Arial, sans-serif; font-size: 12px; fill: #333; }
  </style>
  <text x="10" y="20">Algorithm Clover</text>
  <g><title>2026-05-14&#10;C++: 7문제&#10;Python: 2문제</title><path d="Mgit rm assets/algorithm-grass.svg 0,-8 C -10,-18 -24,-8 -14,6 L 0,20 L 14,6 C 24,-8 10,-18 0,-8 Z" transform="translate(39,45) rotate(0) scale(0.5)" style="fill:#1B5E20;stroke:#ffffff;stroke-width:1;" /><path d="Mgit rm assets/algorithm-grass.svg 0,-8 C -10,-18 -24,-8 -14,6 L 0,20 L 14,6 C 24,-8 10,-18 0,-8 Z" transform="translate(54,60) rotate(90) scale(0.5)" style="fill:#1B5E20;stroke:#ffffff;stroke-width:1;" /><path d="Mgit rm assets/algorithm-grass.svg 0,-8 C -10,-18 -24,-8 -14,6 L 0,20 L 14,6 C 24,-8 10,-18 0,-8 Z" transform="translate(39,75) rotate(180) scale(0.5)" style="fill:#1B5E20;stroke:#ffffff;stroke-width:1;" /><path d="Mgit rm assets/algorithm-grass.svg 0,-8 C -10,-18 -24,-8 -14,6 L 0,20 L 14,6 C 24,-8 10,-18 0,-8 Z" transform="translate(24,60) rotate(270) scale(0.5)" style="fill:#1B5E20;stroke:#ffffff;stroke-width:1;" /><line x1="39" y1="66" x2="39" y2="83" style="stroke:#6D4C41;stroke-width:2;stroke-linecap:round;" /></g>
</svg>
